<svg display="none" xmlns="http://www.w3.org/2000/svg">
    <symbol id="houseFromFile" viewBox="0 0 64 64">
        <g>
            <rect x="16" y="34" fill="blue" width="6" height="6"/>
            <rect x="42" y="34" fill="blue" width="6" height="6"/>
            <path fill="#231F20" d="M63.211,29.789L34.438,1.015c0,0-0.937-1.015-2.43-1.015s-2.376,0.991-2.376,0.991L20,10.604V5
		c0-0.553-0.447-1-1-1h-6c-0.553,0-1,0.447-1,1v13.589L0.783,29.783C0.24,30.326,0,31.172,0,32c0,1.656,1.343,3,3,3
		c0.828,0,1.662-0.251,2.205-0.794L6,33.411V60c0,2.211,1.789,4,4,4h44c2.211,0,4-1.789,4-4V33.394l0.804,0.804
		C59.347,34.739,60.172,35,61,35c1.657,0,3-1.343,3-3C64,31.171,63.754,30.332,63.211,29.789z M24,41c0,0.553-0.447,1-1,1h-8
		c-0.553,0-1-0.447-1-1v-8c0-0.553,0.447-1,1-1h8c0.553,0,1,0.447,1,1V41z M38,62.002H26v-15c0-0.553,0.447-1,1-1h10
		c0.553,0,1,0.447,1,1V62.002z M50,41c0,0.553-0.447,1-1,1h-8c-0.553,0-1-0.447-1-1v-8c0-0.553,0.447-1,1-1h8c0.553,0,1,0.447,1,1
		V41z M61,33c-0.276,0-0.602-0.036-0.782-0.217L32.716,5.281c-0.195-0.195-0.451-0.293-0.707-0.293s-0.512,0.098-0.707,0.293
		L3.791,32.793C3.61,32.974,3.276,33,3,33c-0.553,0-1-0.447-1-1c0-0.276,0.016-0.622,0.197-0.803L31.035,2.41
		c0,0,0.373-0.41,0.974-0.41s0.982,0.398,0.982,0.398l28.806,28.805C61.978,31.384,62,31.724,62,32C62,32.552,61.553,33,61,33z"/>
        </g>
    </symbol>
    <symbol id="bankFromFile" viewBox="0 0 64 64">
        <g>
            <circle fill="red" cx="32" cy="14" r="3"/>
            <path fill="blue" d="M4,25h56c1.794,0,3.368-1.194,3.852-2.922c0.484-1.728-0.242-3.566-1.775-4.497l-28-17
		C33.438,0.193,32.719,0,32,0s-1.438,0.193-2.076,0.581l-28,17c-1.533,0.931-2.26,2.77-1.775,4.497C0.632,23.806,2.206,25,4,25z
		 M32,9c2.762,0,5,2.238,5,5s-2.238,5-5,5s-5-2.238-5-5S29.238,9,32,9z"/>
            <rect x="34" y="27" fill="#231F20" width="8" height="25"/>
            <rect x="46" y="27" fill="#231F20" width="8" height="25"/>
            <rect x="22" y="27" fill="#231F20" width="8" height="25"/>
            <rect x="10" y="27" fill="#231F20" width="8" height="25"/>
            <path fill="#231F20" d="M4,58h56c0-2.209-1.791-4-4-4H8C5.791,54,4,55.791,4,58z"/>
            <path fill="blue"
                  d="M63.445,60H0.555C0.211,60.591,0,61.268,0,62v2h64v-2C64,61.268,63.789,60.591,63.445,60z"/>
        </g>
    </symbol>
</svg>